<?xml version="1.0" encoding="UTF-8"?>
<svg id="Line_chart" data-name="Line chart" xmlns="http://www.w3.org/2000/svg" viewBox="0 0 800 500.34">
  <defs>
    <style>
      .cls-1 {
        fill: #282b3e;
      }

      .cls-1, .cls-2, .cls-3 {
        stroke-width: 0px;
      }

      .cls-2 {
        fill: #00a758;
      }

      .cls-4 {
        stroke: #000;
      }

      .cls-4, .cls-5, .cls-6, .cls-7 {
        stroke-miterlimit: 10;
      }

      .cls-4, .cls-6 {
        fill: #424559;
      }

      .cls-4, .cls-6, .cls-7 {
        stroke-width: .5px;
      }

      .cls-3 {
        fill: #0000c1;
      }

      .cls-5 {
        stroke: #0000c1;
      }

      .cls-5, .cls-7, .cls-8 {
        fill: none;
      }

      .cls-5, .cls-8 {
        stroke-linecap: round;
        stroke-width: 4px;
      }

      .cls-6, .cls-7 {
        stroke: #8e90a2;
      }

      .cls-8 {
        stroke: #00a758;
        stroke-linejoin: round;
      }
    </style>
  </defs>
  <g>
    <line class="cls-7" x1="62.58" y1="458.01" x2="794.86" y2="458.01"/>
    <g>
      <g>
        <g>
          <path class="cls-1" d="M12.79,453.82h-.04s-.18.25-.68.65c-.5.4-1.26.76-1.8.94l-.36-1.21c.65-.22,1.33-.58,1.8-.94.47-.36,1.01-.92,1.3-1.6h1.26v14.01h-1.48v-11.85Z"/>
          <path class="cls-1" d="M19.09,463.56c.63,0,1.08.49,1.08,1.12,0,.95-1.01,2.9-1.64,3.83l-.9-.38c.45-.77.9-1.62,1.19-2.45-.45-.13-.79-.49-.79-1.01,0-.63.43-1.12,1.06-1.12Z"/>
          <path class="cls-1" d="M22.78,458.66c0-3.1.68-7.29,4.38-7.29s4.38,4.2,4.38,7.29-.68,7.29-4.38,7.29-4.38-4.2-4.38-7.29ZM30.16,458.66c0-2.23-.25-6.03-3.01-6.03s-3.01,3.8-3.01,6.03.25,6.03,3.01,6.03,3.01-3.8,3.01-6.03Z"/>
          <path class="cls-1" d="M33.97,458.66c0-3.1.68-7.29,4.38-7.29s4.38,4.2,4.38,7.29-.68,7.29-4.38,7.29-4.38-4.2-4.38-7.29ZM41.35,458.66c0-2.23-.25-6.03-3.01-6.03s-3.01,3.8-3.01,6.03.25,6.03,3.01,6.03,3.01-3.8,3.01-6.03Z"/>
          <path class="cls-1" d="M45.17,458.66c0-3.1.68-7.29,4.38-7.29s4.38,4.2,4.38,7.29-.68,7.29-4.38,7.29-4.38-4.2-4.38-7.29ZM52.55,458.66c0-2.23-.25-6.03-3.01-6.03s-3.01,3.8-3.01,6.03.25,6.03,3.01,6.03,3.01-3.8,3.01-6.03Z"/>
        </g>
        <g>
          <path class="cls-1" d="M18.33,355.5h-.04s-.18.25-.68.65c-.5.4-1.26.76-1.8.94l-.36-1.21c.65-.22,1.33-.58,1.8-.94.47-.36,1.01-.92,1.3-1.6h1.26v14.01h-1.48v-11.85Z"/>
          <path class="cls-1" d="M24.63,365.24c.63,0,1.08.49,1.08,1.12,0,.95-1.01,2.9-1.64,3.83l-.9-.38c.45-.77.9-1.62,1.19-2.45-.45-.13-.79-.49-.79-1.01,0-.63.43-1.12,1.06-1.12Z"/>
          <path class="cls-1" d="M30.26,355.5h-.04s-.18.25-.68.65c-.5.4-1.26.76-1.8.94l-.36-1.21c.65-.22,1.33-.58,1.8-.94.47-.36,1.01-.92,1.3-1.6h1.26v14.01h-1.48v-11.85Z"/>
          <path class="cls-1" d="M36.08,367.35c.52-3.92,2.83-8.62,5.4-12.75h-6.43v-1.26h7.81v1.04c-2.56,4.27-4.74,9.42-5.2,12.96h-1.58Z"/>
          <path class="cls-1" d="M46.57,363.86c.36,1.53,1.44,2.52,2.74,2.52,2.07,0,2.86-1.94,2.86-3.73,0-2.34-1.24-3.51-2.57-3.51-1.19,0-2.07.9-2.68,1.85l-1.12-.23.49-7.42h6.41v1.26h-5.2l-.34,4.45c.7-.83,1.49-1.17,2.57-1.17,2.61,0,3.93,2.3,3.93,4.66,0,2.67-1.51,5.1-4.38,5.1-1.87,0-3.26-1.06-3.83-2.79l1.13-.99Z"/>
        </g>
        <g>
          <path class="cls-1" d="M12.79,261.52h-.04s-.18.25-.68.65-1.26.76-1.8.94l-.36-1.21c.65-.22,1.33-.58,1.8-.94.47-.36,1.01-.92,1.3-1.6h1.26v14.01h-1.48v-11.85Z"/>
          <path class="cls-1" d="M19.09,271.26c.63,0,1.08.49,1.08,1.12,0,.95-1.01,2.9-1.64,3.83l-.9-.38c.45-.77.9-1.62,1.19-2.45-.45-.13-.79-.49-.79-1.01,0-.63.43-1.12,1.06-1.12Z"/>
          <path class="cls-1" d="M23.82,269.81c.49,1.42,1.64,2.59,3.13,2.59,1.69,0,2.83-1.03,2.83-2.75,0-2.29-1.48-3.02-3.55-3.02-.32,0-.65.04-.92.09v-1.4c.36.04.72.07,1.17.07,2.07,0,2.99-1.1,2.99-2.52,0-1.57-.95-2.52-2.52-2.52-1.35,0-2.3,1.04-2.61,2.12l-1.1-.83c.59-1.48,2.03-2.56,3.96-2.56,2.3,0,3.67,1.66,3.67,3.6,0,1.64-.67,2.54-2.09,3.28,1.62.54,2.47,1.84,2.47,3.51,0,2.59-1.78,4.2-4.32,4.2-1.87,0-3.49-1.08-4.25-2.83l1.13-1.03Z"/>
          <path class="cls-1" d="M35.38,269.88c.36,1.53,1.44,2.52,2.74,2.52,2.07,0,2.86-1.94,2.86-3.73,0-2.34-1.24-3.51-2.57-3.51-1.19,0-2.07.9-2.68,1.86l-1.12-.23.49-7.42h6.41v1.26h-5.2l-.34,4.45c.7-.83,1.49-1.17,2.57-1.17,2.61,0,3.93,2.3,3.93,4.66,0,2.67-1.51,5.1-4.38,5.1-1.87,0-3.26-1.06-3.83-2.79l1.13-.99Z"/>
          <path class="cls-1" d="M45.17,266.37c0-3.1.68-7.29,4.38-7.29s4.38,4.2,4.38,7.29-.68,7.29-4.38,7.29-4.38-4.2-4.38-7.29ZM52.55,266.37c0-2.23-.25-6.03-3.01-6.03s-3.01,3.8-3.01,6.03.25,6.03,3.01,6.03,3.01-3.8,3.01-6.03Z"/>
        </g>
        <g>
          <path class="cls-1" d="M12.79,167.54h-.04s-.18.25-.68.65c-.5.4-1.26.76-1.8.94l-.36-1.21c.65-.22,1.33-.58,1.8-.94.47-.36,1.01-.92,1.3-1.6h1.26v14.01h-1.48v-11.85Z"/>
          <path class="cls-1" d="M19.09,177.28c.63,0,1.08.49,1.08,1.12,0,.95-1.01,2.9-1.64,3.83l-.9-.38c.45-.77.9-1.62,1.19-2.45-.45-.13-.79-.49-.79-1.01,0-.63.43-1.12,1.06-1.12Z"/>
          <path class="cls-1" d="M24.18,175.9c.36,1.53,1.44,2.52,2.74,2.52,2.07,0,2.86-1.94,2.86-3.73,0-2.34-1.24-3.51-2.57-3.51-1.19,0-2.07.9-2.68,1.85l-1.12-.23.49-7.42h6.41v1.26h-5.2l-.34,4.45c.7-.83,1.49-1.17,2.57-1.17,2.61,0,3.93,2.3,3.93,4.66,0,2.67-1.51,5.1-4.38,5.1-1.87,0-3.26-1.06-3.83-2.79l1.13-.99Z"/>
          <path class="cls-1" d="M34.28,178.11c.95-2.39,2.45-3.8,3.84-4.95,1.55-1.28,2.81-2.3,2.81-4.09,0-1.46-.88-2.72-2.36-2.72-1.73,0-2.81,1.73-2.7,3.44l-1.21-.85c-.05-2.02,1.66-3.85,4-3.85s3.75,1.67,3.75,3.85c0,2.36-1.69,3.75-3.42,5.19-1.33,1.12-2.68,2.34-3.28,4h6.7v1.26h-8.12v-1.28Z"/>
          <path class="cls-1" d="M46.57,175.9c.36,1.53,1.44,2.52,2.74,2.52,2.07,0,2.86-1.94,2.86-3.73,0-2.34-1.24-3.51-2.57-3.51-1.19,0-2.07.9-2.68,1.85l-1.12-.23.49-7.42h6.41v1.26h-5.2l-.34,4.45c.7-.83,1.49-1.17,2.57-1.17,2.61,0,3.93,2.3,3.93,4.66,0,2.67-1.51,5.1-4.38,5.1-1.87,0-3.26-1.06-3.83-2.79l1.13-.99Z"/>
        </g>
        <g>
          <path class="cls-1" d="M14.87,73.56h-.04s-.18.25-.68.65-1.26.76-1.8.94l-.36-1.21c.65-.22,1.33-.58,1.8-.94.47-.36,1.01-.92,1.3-1.6h1.26v14.01h-1.48v-11.85Z"/>
          <path class="cls-1" d="M21.17,83.31c.63,0,1.08.49,1.08,1.12,0,.95-1.01,2.9-1.64,3.83l-.9-.38c.45-.77.9-1.62,1.19-2.45-.45-.13-.79-.49-.79-1.01,0-.63.43-1.12,1.06-1.12Z"/>
          <path class="cls-1" d="M25.6,85.41c.52-3.92,2.83-8.62,5.4-12.75h-6.43v-1.26h7.81v1.04c-2.56,4.27-4.74,9.42-5.2,12.96h-1.58Z"/>
          <path class="cls-1" d="M33.97,78.41c0-3.1.68-7.29,4.38-7.29s4.38,4.2,4.38,7.29-.68,7.29-4.38,7.29-4.38-4.2-4.38-7.29ZM41.35,78.41c0-2.23-.25-6.03-3.01-6.03s-3.01,3.8-3.01,6.03.25,6.03,3.01,6.03,3.01-3.8,3.01-6.03Z"/>
          <path class="cls-1" d="M45.17,78.41c0-3.1.68-7.29,4.38-7.29s4.38,4.2,4.38,7.29-.68,7.29-4.38,7.29-4.38-4.2-4.38-7.29ZM52.55,78.41c0-2.23-.25-6.03-3.01-6.03s-3.01,3.8-3.01,6.03.25,6.03,3.01,6.03,3.01-3.8,3.01-6.03Z"/>
        </g>
      </g>
      <g>
        <line class="cls-4" x1="62.58" y1="458.01" x2="794.86" y2="458.01"/>
        <line class="cls-6" x1="62.58" y1="361.13" x2="794.86" y2="361.13"/>
        <line class="cls-6" x1="62.58" y1="267.16" x2="794.86" y2="267.16"/>
        <line class="cls-6" x1="62.58" y1="173.18" x2="794.86" y2="173.18"/>
        <line class="cls-6" x1="62.58" y1="79.2" x2="794.86" y2="79.2"/>
      </g>
    </g>
    <g>
      <g>
        <line class="cls-8" x1="70.66" y1="447.73" x2="65.27" y2="455.11"/>
        <line class="cls-8" x1="76.04" y1="445.21" x2="70.66" y2="447.73"/>
        <line class="cls-8" x1="81.43" y1="439.57" x2="76.04" y2="445.21"/>
        <line class="cls-8" x1="86.81" y1="429.31" x2="81.43" y2="439.57"/>
        <line class="cls-8" x1="92.19" y1="432.3" x2="86.81" y2="429.31"/>
        <line class="cls-8" x1="97.58" y1="447.05" x2="92.19" y2="432.3"/>
        <line class="cls-8" x1="102.96" y1="436.8" x2="97.58" y2="447.05"/>
        <line class="cls-8" x1="108.35" y1="440.25" x2="102.96" y2="436.8"/>
        <line class="cls-8" x1="113.73" y1="434.77" x2="108.35" y2="440.25"/>
        <line class="cls-8" x1="119.12" y1="421.11" x2="113.73" y2="434.77"/>
        <line class="cls-8" x1="124.5" y1="418.46" x2="119.12" y2="421.11"/>
        <line class="cls-8" x1="129.89" y1="415.31" x2="124.5" y2="418.46"/>
        <line class="cls-8" x1="135.27" y1="411.04" x2="129.89" y2="415.31"/>
        <line class="cls-8" x1="140.65" y1="399.42" x2="135.27" y2="411.04"/>
        <line class="cls-8" x1="146.04" y1="398.04" x2="140.65" y2="399.42"/>
        <line class="cls-8" x1="151.42" y1="393.93" x2="146.04" y2="398.04"/>
        <line class="cls-8" x1="156.81" y1="387.93" x2="151.42" y2="393.93"/>
        <line class="cls-8" x1="162.19" y1="382.8" x2="156.81" y2="387.93"/>
        <line class="cls-8" x1="167.58" y1="390.83" x2="162.19" y2="382.8"/>
        <line class="cls-8" x1="172.96" y1="381.67" x2="167.58" y2="390.83"/>
        <line class="cls-8" x1="178.35" y1="394.5" x2="172.96" y2="381.67"/>
        <line class="cls-8" x1="183.73" y1="387.71" x2="178.35" y2="394.5"/>
        <line class="cls-8" x1="189.11" y1="392.01" x2="183.73" y2="387.71"/>
        <line class="cls-8" x1="194.5" y1="400.83" x2="189.11" y2="392.01"/>
        <line class="cls-8" x1="199.88" y1="396.77" x2="194.5" y2="400.83"/>
        <line class="cls-8" x1="205.27" y1="382.57" x2="199.88" y2="396.77"/>
        <line class="cls-8" x1="210.65" y1="385.8" x2="205.27" y2="382.57"/>
        <line class="cls-8" x1="216.04" y1="378.51" x2="210.65" y2="385.8"/>
        <line class="cls-8" x1="221.42" y1="376.71" x2="216.04" y2="378.51"/>
        <line class="cls-8" x1="226.81" y1="386.08" x2="221.42" y2="376.71"/>
        <line class="cls-8" x1="232.19" y1="389.8" x2="226.81" y2="386.08"/>
        <line class="cls-8" x1="237.57" y1="400.46" x2="232.19" y2="389.8"/>
        <line class="cls-8" x1="242.96" y1="415.63" x2="237.57" y2="400.46"/>
        <line class="cls-8" x1="248.34" y1="399.96" x2="242.96" y2="415.63"/>
        <line class="cls-8" x1="253.73" y1="413.17" x2="248.34" y2="399.96"/>
        <line class="cls-8" x1="259.11" y1="428.1" x2="253.73" y2="413.17"/>
        <line class="cls-8" x1="264.5" y1="437.02" x2="259.11" y2="428.1"/>
        <line class="cls-8" x1="269.88" y1="434.44" x2="264.5" y2="437.02"/>
        <line class="cls-8" x1="275.27" y1="409.78" x2="269.88" y2="434.44"/>
        <line class="cls-8" x1="280.65" y1="386.51" x2="275.27" y2="409.78"/>
        <line class="cls-8" x1="286.03" y1="382.14" x2="280.65" y2="386.51"/>
        <line class="cls-8" x1="291.42" y1="375.53" x2="286.03" y2="382.14"/>
        <line class="cls-8" x1="296.8" y1="359.96" x2="291.42" y2="375.53"/>
        <line class="cls-8" x1="302.19" y1="345.88" x2="296.8" y2="359.96"/>
        <line class="cls-8" x1="307.57" y1="341.7" x2="302.19" y2="345.88"/>
        <line class="cls-8" x1="312.96" y1="339.66" x2="307.57" y2="341.7"/>
        <line class="cls-8" x1="318.34" y1="342.24" x2="312.96" y2="339.66"/>
        <line class="cls-8" x1="323.73" y1="329.46" x2="318.34" y2="342.24"/>
        <line class="cls-8" x1="329.11" y1="320.56" x2="323.73" y2="329.46"/>
        <line class="cls-8" x1="334.49" y1="310.1" x2="329.11" y2="320.56"/>
        <line class="cls-8" x1="339.88" y1="311.53" x2="334.49" y2="310.1"/>
        <line class="cls-8" x1="345.26" y1="303.82" x2="339.88" y2="311.53"/>
        <line class="cls-8" x1="350.65" y1="297.7" x2="345.26" y2="303.82"/>
        <line class="cls-8" x1="356.03" y1="296.97" x2="350.65" y2="297.7"/>
        <line class="cls-8" x1="361.42" y1="288.93" x2="356.03" y2="296.97"/>
        <line class="cls-8" x1="366.8" y1="289.12" x2="361.42" y2="288.93"/>
        <line class="cls-8" x1="372.19" y1="282.81" x2="366.8" y2="289.12"/>
        <line class="cls-8" x1="377.57" y1="280.04" x2="372.19" y2="282.81"/>
        <line class="cls-8" x1="382.95" y1="281.94" x2="377.57" y2="280.04"/>
        <line class="cls-8" x1="388.34" y1="279.87" x2="382.95" y2="281.94"/>
        <line class="cls-8" x1="393.72" y1="275.31" x2="388.34" y2="279.87"/>
        <line class="cls-8" x1="399.11" y1="281.99" x2="393.72" y2="275.31"/>
        <line class="cls-8" x1="404.49" y1="286.37" x2="399.11" y2="281.99"/>
        <line class="cls-8" x1="409.88" y1="281.68" x2="404.49" y2="286.37"/>
        <line class="cls-8" x1="415.26" y1="281.78" x2="409.88" y2="281.68"/>
        <line class="cls-8" x1="420.65" y1="279.33" x2="415.26" y2="281.78"/>
        <line class="cls-8" x1="426.03" y1="271.36" x2="420.65" y2="279.33"/>
        <line class="cls-8" x1="431.41" y1="266.14" x2="426.03" y2="271.36"/>
        <line class="cls-8" x1="436.8" y1="261.92" x2="431.41" y2="266.14"/>
        <line class="cls-8" x1="442.18" y1="273.89" x2="436.8" y2="261.92"/>
        <line class="cls-8" x1="447.57" y1="280.4" x2="442.18" y2="273.89"/>
        <line class="cls-8" x1="452.95" y1="296.01" x2="447.57" y2="280.4"/>
        <line class="cls-8" x1="458.34" y1="264.04" x2="452.95" y2="296.01"/>
        <line class="cls-8" x1="463.72" y1="251.75" x2="458.34" y2="264.04"/>
        <line class="cls-8" x1="469.11" y1="244.49" x2="463.72" y2="251.75"/>
        <line class="cls-8" x1="474.49" y1="234.03" x2="469.11" y2="244.49"/>
        <line class="cls-8" x1="479.87" y1="243.67" x2="474.49" y2="234.03"/>
        <line class="cls-8" x1="485.26" y1="225.32" x2="479.87" y2="243.67"/>
        <line class="cls-8" x1="490.64" y1="221.39" x2="485.26" y2="225.32"/>
        <line class="cls-8" x1="496.03" y1="218.38" x2="490.64" y2="221.39"/>
        <line class="cls-8" x1="501.41" y1="215.93" x2="496.03" y2="218.38"/>
        <line class="cls-8" x1="506.8" y1="214.13" x2="501.41" y2="215.93"/>
        <line class="cls-8" x1="512.18" y1="212" x2="506.8" y2="214.13"/>
        <line class="cls-8" x1="517.57" y1="195.7" x2="512.18" y2="212"/>
        <line class="cls-8" x1="522.95" y1="195.66" x2="517.57" y2="195.7"/>
        <line class="cls-8" x1="528.33" y1="208.01" x2="522.95" y2="195.66"/>
        <line class="cls-8" x1="533.72" y1="300.29" x2="528.33" y2="208.01"/>
        <line class="cls-8" x1="539.1" y1="273.98" x2="533.72" y2="300.29"/>
        <line class="cls-8" x1="544.49" y1="241.41" x2="539.1" y2="273.98"/>
        <line class="cls-8" x1="549.87" y1="234.27" x2="544.49" y2="241.41"/>
        <line class="cls-8" x1="555.26" y1="198.31" x2="549.87" y2="234.27"/>
        <line class="cls-8" x1="560.64" y1="190.37" x2="555.26" y2="198.31"/>
        <line class="cls-8" x1="566.03" y1="198.68" x2="560.64" y2="190.37"/>
        <line class="cls-8" x1="571.41" y1="195.11" x2="566.03" y2="198.68"/>
        <line class="cls-8" x1="576.79" y1="163.16" x2="571.41" y2="195.11"/>
        <line class="cls-8" x1="582.18" y1="147.33" x2="576.79" y2="163.16"/>
        <line class="cls-8" x1="587.56" y1="144.07" x2="582.18" y2="147.33"/>
        <line class="cls-8" x1="592.95" y1="141.14" x2="587.56" y2="144.07"/>
        <line class="cls-8" x1="598.33" y1="139.63" x2="592.95" y2="141.14"/>
        <line class="cls-8" x1="603.72" y1="130.31" x2="598.33" y2="139.63"/>
        <line class="cls-8" x1="609.1" y1="127.82" x2="603.72" y2="130.31"/>
        <line class="cls-8" x1="614.49" y1="116.05" x2="609.1" y2="127.82"/>
        <line class="cls-8" x1="619.87" y1="112.98" x2="614.49" y2="116.05"/>
        <line class="cls-8" x1="625.25" y1="108.13" x2="619.87" y2="112.98"/>
        <line class="cls-8" x1="630.64" y1="107.77" x2="625.25" y2="108.13"/>
        <line class="cls-8" x1="636.02" y1="109.43" x2="630.64" y2="107.77"/>
        <line class="cls-8" x1="641.41" y1="118.58" x2="636.02" y2="109.43"/>
        <line class="cls-8" x1="646.79" y1="102.15" x2="641.41" y2="118.58"/>
        <line class="cls-8" x1="652.18" y1="126.55" x2="646.79" y2="102.15"/>
        <line class="cls-8" x1="657.56" y1="134.3" x2="652.18" y2="126.55"/>
        <line class="cls-8" x1="662.95" y1="142.16" x2="657.56" y2="134.3"/>
        <line class="cls-8" x1="668.33" y1="173.03" x2="662.95" y2="142.16"/>
        <line class="cls-8" x1="673.71" y1="171.07" x2="668.33" y2="173.03"/>
        <line class="cls-8" x1="679.1" y1="227.01" x2="673.71" y2="171.07"/>
        <line class="cls-8" x1="684.48" y1="180.97" x2="679.1" y2="227.01"/>
        <line class="cls-8" x1="689.87" y1="200.35" x2="684.48" y2="180.97"/>
        <line class="cls-8" x1="695.25" y1="232.15" x2="689.87" y2="200.35"/>
        <line class="cls-8" x1="700.64" y1="210.52" x2="695.25" y2="232.15"/>
        <line class="cls-8" x1="706.02" y1="195.99" x2="700.64" y2="210.52"/>
        <line class="cls-8" x1="711.41" y1="201.92" x2="706.02" y2="195.99"/>
        <line class="cls-8" x1="716.79" y1="171.04" x2="711.41" y2="201.92"/>
        <line class="cls-8" x1="722.17" y1="181.57" x2="716.79" y2="171.04"/>
        <line class="cls-8" x1="727.56" y1="172.57" x2="722.17" y2="181.57"/>
        <line class="cls-8" x1="732.94" y1="164.58" x2="727.56" y2="172.57"/>
        <line class="cls-8" x1="738.33" y1="172.46" x2="732.94" y2="164.58"/>
        <line class="cls-8" x1="743.71" y1="159.13" x2="738.33" y2="172.46"/>
        <line class="cls-8" x1="749.1" y1="147.22" x2="743.71" y2="159.13"/>
        <line class="cls-8" x1="754.48" y1="144.71" x2="749.1" y2="147.22"/>
        <line class="cls-8" x1="759.87" y1="154.67" x2="754.48" y2="144.71"/>
        <line class="cls-8" x1="765.25" y1="165.12" x2="759.87" y2="154.67"/>
        <line class="cls-8" x1="770.63" y1="127.37" x2="765.25" y2="165.12"/>
        <line class="cls-8" x1="776.02" y1="95.46" x2="770.63" y2="127.37"/>
        <line class="cls-8" x1="781.4" y1="95.29" x2="776.02" y2="95.46"/>
        <line class="cls-8" x1="786.79" y1="92.63" x2="781.4" y2="95.29"/>
        <line class="cls-8" x1="792.17" y1="88.27" x2="786.79" y2="92.63"/>
      </g>
      <g>
        <line class="cls-5" x1="70.66" y1="453.27" x2="65.27" y2="455.11"/>
        <line class="cls-5" x1="76.04" y1="448.26" x2="70.66" y2="453.27"/>
        <line class="cls-5" x1="81.43" y1="443.52" x2="76.04" y2="448.26"/>
        <line class="cls-5" x1="86.81" y1="431.9" x2="81.43" y2="443.52"/>
        <line class="cls-5" x1="92.19" y1="446.35" x2="86.81" y2="431.9"/>
        <line class="cls-5" x1="97.58" y1="455.57" x2="92.19" y2="446.35"/>
        <line class="cls-5" x1="102.96" y1="440.27" x2="97.58" y2="455.57"/>
        <line class="cls-5" x1="108.35" y1="447.27" x2="102.96" y2="440.27"/>
        <line class="cls-5" x1="113.73" y1="442.99" x2="108.35" y2="447.27"/>
        <line class="cls-5" x1="119.12" y1="429.18" x2="113.73" y2="442.99"/>
        <line class="cls-5" x1="124.5" y1="426.51" x2="119.12" y2="429.18"/>
        <line class="cls-5" x1="129.89" y1="424.21" x2="124.5" y2="426.51"/>
        <line class="cls-5" x1="135.27" y1="421.95" x2="129.89" y2="424.21"/>
        <line class="cls-5" x1="140.65" y1="408.78" x2="135.27" y2="421.95"/>
        <line class="cls-5" x1="146.04" y1="409.25" x2="140.65" y2="408.78"/>
        <line class="cls-5" x1="151.42" y1="406.8" x2="146.04" y2="409.25"/>
        <line class="cls-5" x1="156.81" y1="399.73" x2="151.42" y2="406.8"/>
        <line class="cls-5" x1="162.19" y1="396.1" x2="156.81" y2="399.73"/>
        <line class="cls-5" x1="167.58" y1="410.59" x2="162.19" y2="396.1"/>
        <line class="cls-5" x1="172.96" y1="396.75" x2="167.58" y2="410.59"/>
        <line class="cls-5" x1="178.35" y1="408.56" x2="172.96" y2="396.75"/>
        <line class="cls-5" x1="183.73" y1="402.37" x2="178.35" y2="408.56"/>
        <line class="cls-5" x1="189.11" y1="408.76" x2="183.73" y2="402.37"/>
        <line class="cls-5" x1="194.5" y1="413.42" x2="189.11" y2="408.76"/>
        <line class="cls-5" x1="199.88" y1="409.35" x2="194.5" y2="413.42"/>
        <line class="cls-5" x1="205.27" y1="396.36" x2="199.88" y2="409.35"/>
        <line class="cls-5" x1="210.65" y1="402.01" x2="205.27" y2="396.36"/>
        <line class="cls-5" x1="216.04" y1="396.87" x2="210.65" y2="402.01"/>
        <line class="cls-5" x1="221.42" y1="394.76" x2="216.04" y2="396.87"/>
        <line class="cls-5" x1="226.81" y1="406.04" x2="221.42" y2="394.76"/>
        <line class="cls-5" x1="232.19" y1="408.92" x2="226.81" y2="406.04"/>
        <line class="cls-5" x1="237.57" y1="417.8" x2="232.19" y2="408.92"/>
        <line class="cls-5" x1="242.96" y1="434.96" x2="237.57" y2="417.8"/>
        <line class="cls-5" x1="248.34" y1="416.94" x2="242.96" y2="434.96"/>
        <line class="cls-5" x1="253.73" y1="431.31" x2="248.34" y2="416.94"/>
        <line class="cls-5" x1="259.11" y1="442.51" x2="253.73" y2="431.31"/>
        <line class="cls-5" x1="264.5" y1="451.31" x2="259.11" y2="442.51"/>
        <line class="cls-5" x1="269.88" y1="443.19" x2="264.5" y2="451.31"/>
        <line class="cls-5" x1="275.27" y1="429.26" x2="269.88" y2="443.19"/>
        <line class="cls-5" x1="280.65" y1="411.68" x2="275.27" y2="429.26"/>
        <line class="cls-5" x1="286.03" y1="410.7" x2="280.65" y2="411.68"/>
        <line class="cls-5" x1="291.42" y1="400.28" x2="286.03" y2="410.7"/>
        <line class="cls-5" x1="296.8" y1="392.51" x2="291.42" y2="400.28"/>
        <line class="cls-5" x1="302.19" y1="380.7" x2="296.8" y2="392.51"/>
        <line class="cls-5" x1="307.57" y1="374.11" x2="302.19" y2="380.7"/>
        <line class="cls-5" x1="312.96" y1="380.19" x2="307.57" y2="374.11"/>
        <line class="cls-5" x1="318.34" y1="380.06" x2="312.96" y2="380.19"/>
        <line class="cls-5" x1="323.73" y1="368.8" x2="318.34" y2="380.06"/>
        <line class="cls-5" x1="329.11" y1="363.11" x2="323.73" y2="368.8"/>
        <line class="cls-5" x1="334.49" y1="353.49" x2="329.11" y2="363.11"/>
        <line class="cls-5" x1="339.88" y1="354.41" x2="334.49" y2="353.49"/>
        <line class="cls-5" x1="345.26" y1="349.21" x2="339.88" y2="354.41"/>
        <line class="cls-5" x1="350.65" y1="342.59" x2="345.26" y2="349.21"/>
        <line class="cls-5" x1="356.03" y1="341.73" x2="350.65" y2="342.59"/>
        <line class="cls-5" x1="361.42" y1="335.1" x2="356.03" y2="341.73"/>
        <line class="cls-5" x1="366.8" y1="334.67" x2="361.42" y2="335.1"/>
        <line class="cls-5" x1="372.19" y1="330.72" x2="366.8" y2="334.67"/>
        <line class="cls-5" x1="377.57" y1="330.16" x2="372.19" y2="330.72"/>
        <line class="cls-5" x1="382.95" y1="332.6" x2="377.57" y2="330.16"/>
        <line class="cls-5" x1="388.34" y1="330.98" x2="382.95" y2="332.6"/>
        <line class="cls-5" x1="393.72" y1="330.67" x2="388.34" y2="330.98"/>
        <line class="cls-5" x1="399.11" y1="336.4" x2="393.72" y2="330.67"/>
        <line class="cls-5" x1="404.49" y1="337.91" x2="399.11" y2="336.4"/>
        <line class="cls-5" x1="409.88" y1="334.75" x2="404.49" y2="337.91"/>
        <line class="cls-5" x1="415.26" y1="334.43" x2="409.88" y2="334.75"/>
        <line class="cls-5" x1="420.65" y1="333.78" x2="415.26" y2="334.43"/>
        <line class="cls-5" x1="426.03" y1="322.74" x2="420.65" y2="333.78"/>
        <line class="cls-5" x1="431.41" y1="318" x2="426.03" y2="322.74"/>
        <line class="cls-5" x1="436.8" y1="314.46" x2="431.41" y2="318"/>
        <line class="cls-5" x1="442.18" y1="327.86" x2="436.8" y2="314.46"/>
        <line class="cls-5" x1="447.57" y1="330.53" x2="442.18" y2="327.86"/>
        <line class="cls-5" x1="452.95" y1="344.36" x2="447.57" y2="330.53"/>
        <line class="cls-5" x1="458.34" y1="312.33" x2="452.95" y2="344.36"/>
        <line class="cls-5" x1="463.72" y1="304.07" x2="458.34" y2="312.33"/>
        <line class="cls-5" x1="469.11" y1="295.2" x2="463.72" y2="304.07"/>
        <line class="cls-5" x1="474.49" y1="288.33" x2="469.11" y2="295.2"/>
        <line class="cls-5" x1="479.87" y1="301.93" x2="474.49" y2="288.33"/>
        <line class="cls-5" x1="485.26" y1="280.16" x2="479.87" y2="301.93"/>
        <line class="cls-5" x1="490.64" y1="279.05" x2="485.26" y2="280.16"/>
        <line class="cls-5" x1="496.03" y1="274.13" x2="490.64" y2="279.05"/>
        <line class="cls-5" x1="501.41" y1="270.97" x2="496.03" y2="274.13"/>
        <line class="cls-5" x1="506.8" y1="271.04" x2="501.41" y2="270.97"/>
        <line class="cls-5" x1="512.18" y1="266.96" x2="506.8" y2="271.04"/>
        <line class="cls-5" x1="517.57" y1="253.09" x2="512.18" y2="266.96"/>
        <line class="cls-5" x1="522.95" y1="256.54" x2="517.57" y2="253.09"/>
        <line class="cls-5" x1="528.33" y1="266.03" x2="522.95" y2="256.54"/>
        <line class="cls-5" x1="533.72" y1="338.86" x2="528.33" y2="266.03"/>
        <line class="cls-5" x1="539.1" y1="306.86" x2="533.72" y2="338.86"/>
        <line class="cls-5" x1="544.49" y1="286.61" x2="539.1" y2="306.86"/>
        <line class="cls-5" x1="549.87" y1="290.75" x2="544.49" y2="286.61"/>
        <line class="cls-5" x1="555.26" y1="255.27" x2="549.87" y2="290.75"/>
        <line class="cls-5" x1="560.64" y1="255.43" x2="555.26" y2="255.27"/>
        <line class="cls-5" x1="566.03" y1="262.32" x2="560.64" y2="255.43"/>
        <line class="cls-5" x1="571.41" y1="259.38" x2="566.03" y2="262.32"/>
        <line class="cls-5" x1="576.79" y1="234.83" x2="571.41" y2="259.38"/>
        <line class="cls-5" x1="582.18" y1="220.01" x2="576.79" y2="234.83"/>
        <line class="cls-5" x1="587.56" y1="222.93" x2="582.18" y2="220.01"/>
        <line class="cls-5" x1="592.95" y1="224.82" x2="587.56" y2="222.93"/>
        <line class="cls-5" x1="598.33" y1="215.52" x2="592.95" y2="224.82"/>
        <line class="cls-5" x1="603.72" y1="210.58" x2="598.33" y2="215.52"/>
        <line class="cls-5" x1="609.1" y1="210.28" x2="603.72" y2="210.58"/>
        <line class="cls-5" x1="614.49" y1="199.93" x2="609.1" y2="210.28"/>
        <line class="cls-5" x1="619.87" y1="199.11" x2="614.49" y2="199.93"/>
        <line class="cls-5" x1="625.25" y1="194.27" x2="619.87" y2="199.11"/>
        <line class="cls-5" x1="630.64" y1="197.23" x2="625.25" y2="194.27"/>
        <line class="cls-5" x1="636.02" y1="199.7" x2="630.64" y2="197.23"/>
        <line class="cls-5" x1="641.41" y1="208.96" x2="636.02" y2="199.7"/>
        <line class="cls-5" x1="646.79" y1="191.07" x2="641.41" y2="208.96"/>
        <line class="cls-5" x1="652.18" y1="212.34" x2="646.79" y2="191.07"/>
        <line class="cls-5" x1="657.56" y1="219.05" x2="652.18" y2="212.34"/>
        <line class="cls-5" x1="662.95" y1="228.99" x2="657.56" y2="219.05"/>
        <line class="cls-5" x1="668.33" y1="260.89" x2="662.95" y2="228.99"/>
        <line class="cls-5" x1="673.71" y1="248.97" x2="668.33" y2="260.89"/>
        <line class="cls-5" x1="679.1" y1="301.36" x2="673.71" y2="248.97"/>
        <line class="cls-5" x1="684.48" y1="255.11" x2="679.1" y2="301.36"/>
        <line class="cls-5" x1="689.87" y1="286.87" x2="684.48" y2="255.11"/>
        <line class="cls-5" x1="695.25" y1="313.26" x2="689.87" y2="286.87"/>
        <line class="cls-5" x1="700.64" y1="290.45" x2="695.25" y2="313.26"/>
        <line class="cls-5" x1="706.02" y1="266.39" x2="700.64" y2="290.45"/>
        <line class="cls-5" x1="711.41" y1="279.14" x2="706.02" y2="266.39"/>
        <line class="cls-5" x1="716.79" y1="252.99" x2="711.41" y2="279.14"/>
        <line class="cls-5" x1="722.17" y1="266.96" x2="716.79" y2="252.99"/>
        <line class="cls-5" x1="727.56" y1="252.56" x2="722.17" y2="266.96"/>
        <line class="cls-5" x1="732.94" y1="251.06" x2="727.56" y2="252.56"/>
        <line class="cls-5" x1="738.33" y1="260.17" x2="732.94" y2="251.06"/>
        <line class="cls-5" x1="743.71" y1="247.17" x2="738.33" y2="260.17"/>
        <line class="cls-5" x1="749.1" y1="238.85" x2="743.71" y2="247.17"/>
        <line class="cls-5" x1="754.48" y1="237.45" x2="749.1" y2="238.85"/>
        <line class="cls-5" x1="759.87" y1="249.64" x2="754.48" y2="237.45"/>
        <line class="cls-5" x1="765.25" y1="257.36" x2="759.87" y2="249.64"/>
        <line class="cls-5" x1="770.63" y1="221.49" x2="765.25" y2="257.36"/>
        <line class="cls-5" x1="776.02" y1="196.94" x2="770.63" y2="221.49"/>
        <line class="cls-5" x1="781.4" y1="196.02" x2="776.02" y2="196.94"/>
        <line class="cls-5" x1="786.79" y1="193.62" x2="781.4" y2="196.02"/>
        <line class="cls-5" x1="792.17" y1="184.11" x2="786.79" y2="193.62"/>
      </g>
    </g>
  </g>
  <g>
    <path class="cls-2" d="M20.61,27.69h-12.49v-12.49h12.49v12.49Z"/>
    <path class="cls-1" d="M30.29,14.35h1.4v13.34h-1.4v-13.34Z"/>
    <path class="cls-1" d="M36.55,27.11c-.75-.56-1.33-1.37-1.74-2.41-.41-1.04-.61-2.27-.61-3.67s.2-2.66.6-3.71.98-1.84,1.72-2.39c.74-.55,1.63-.83,2.65-.83,1.08,0,1.98.31,2.7.95.72.63,1.22,1.48,1.49,2.56l-1.22.65c-.19-.89-.53-1.61-1.03-2.18-.49-.56-1.14-.85-1.94-.85-.7,0-1.31.23-1.84.68-.53.46-.94,1.12-1.23,1.99s-.44,1.91-.44,3.12c0,1.14.15,2.15.44,3.02s.71,1.56,1.24,2.04c.53.49,1.14.73,1.83.73.79,0,1.44-.3,1.94-.89.5-.59.85-1.32,1.05-2.19l1.24.68c-.28,1.07-.78,1.92-1.5,2.56-.73.64-1.64.96-2.73.96-1,0-1.87-.28-2.62-.85Z"/>
    <path class="cls-1" d="M45.76,14.35h7.2v1.15h-5.8v4.68h4.32v1.15h-4.32v5.2h6.17v1.15h-7.58v-13.34Z"/>
    <path class="cls-1" d="M62.91,14.35c1.67,0,2.85.34,3.54,1.01.69.67,1.04,1.5,1.04,2.48,0,.7-.18,1.29-.54,1.79-.36.5-.87.85-1.53,1.05.76.25,1.34.66,1.75,1.21.41.56.62,1.24.62,2.04,0,1.03-.34,1.91-1.03,2.65-.68.73-1.8,1.1-3.35,1.1h-3.91v-13.34h3.4ZM65.12,19.71c.63-.31.94-.92.94-1.84,0-1.61-1.09-2.41-3.28-2.41h-1.87v4.72h1.75c1.01,0,1.83-.16,2.46-.47ZM65.6,25.88c.51-.46.77-1.1.77-1.92,0-1.8-1.16-2.7-3.49-2.7h-1.96v5.31h1.94c1.32,0,2.23-.23,2.75-.69Z"/>
    <path class="cls-1" d="M70.46,26.66c-.69-.85-1.03-2.08-1.03-3.67s.34-2.82,1.03-3.67c.69-.85,1.6-1.28,2.75-1.28s2.07.43,2.75,1.28c.68.85,1.02,2.08,1.02,3.67s-.34,2.82-1.02,3.67c-.68.85-1.59,1.28-2.75,1.28s-2.06-.43-2.75-1.28ZM75.09,25.74c.35-.78.53-1.7.53-2.75s-.18-1.97-.53-2.75c-.35-.78-.98-1.17-1.88-1.17s-1.54.39-1.88,1.16c-.34.77-.51,1.7-.51,2.76s.17,1.99.51,2.76c.34.77.97,1.16,1.88,1.16s1.53-.39,1.88-1.17Z"/>
    <path class="cls-1" d="M78.17,19.41v-1.12h1.4v-1.64c0-.82.2-1.45.6-1.9.4-.45.99-.68,1.76-.68.29,0,.57.03.85.09.28.06.51.13.67.22l-.36,1.1c-.31-.17-.66-.25-1.04-.25-.77,0-1.15.46-1.15,1.37v1.69h2.16l-.2,1.12h-1.96v8.28h-1.33v-8.28h-1.4Z"/>
    <path class="cls-1" d="M91.6,27.69l-1.3-4.16h-4.57l-1.26,4.16h-1.46l4.28-13.34h1.39l4.37,13.34h-1.46ZM86.08,22.39h3.87l-1.94-6.23h-.04l-1.89,6.23Z"/>
    <path class="cls-1" d="M99.8,26.88c-.8-.71-1.2-1.82-1.2-3.35v-9.18h1.42v8.48c0,1.24.19,2.19.57,2.86s1.11,1.01,2.19,1.01,1.82-.34,2.21-1.02.59-1.63.59-2.85v-8.48h1.4v9.18c0,1.52-.4,2.64-1.21,3.35-.8.71-1.81,1.06-3.01,1.06s-2.18-.35-2.98-1.06Z"/>
    <path class="cls-1" d="M110.22,27.57c-.2-.2-.3-.44-.3-.73s.1-.55.3-.76c.2-.2.44-.31.73-.31s.55.1.76.31.31.46.31.76-.1.53-.31.73-.46.3-.76.3-.53-.1-.73-.3Z"/>
    <path class="cls-1" d="M115.76,27.06c-.78-.59-1.3-1.43-1.55-2.54l1.33-.74c.12.89.47,1.61,1.04,2.17.58.56,1.27.84,2.07.84.76,0,1.38-.22,1.88-.67.5-.44.75-1.06.75-1.84,0-.48-.13-.89-.4-1.22-.26-.34-.59-.61-.98-.83s-.92-.46-1.57-.74c-.78-.33-1.41-.64-1.89-.92-.48-.28-.89-.65-1.22-1.12-.34-.47-.5-1.07-.5-1.79s.17-1.33.51-1.87c.34-.54.81-.96,1.4-1.25.59-.29,1.25-.44,1.97-.44,1,0,1.84.27,2.54.81.7.54,1.12,1.28,1.28,2.23l-1.19.72c-.14-.78-.45-1.41-.91-1.9-.46-.49-1.05-.73-1.75-.73s-1.28.22-1.74.65c-.46.43-.69.98-.69,1.66,0,.48.13.89.39,1.22.26.34.58.61.97.82.39.21.91.45,1.57.73.79.34,1.43.64,1.91.92.48.28.89.66,1.22,1.15s.5,1.1.5,1.84-.17,1.36-.5,1.93-.8,1-1.42,1.32c-.62.32-1.34.48-2.17.48-1.13,0-2.08-.29-2.86-.88Z"/>
    <path class="cls-1" d="M125.2,27.57c-.2-.2-.3-.44-.3-.73s.1-.55.3-.76c.2-.2.44-.31.73-.31s.55.1.76.31.31.46.31.76-.1.53-.31.73-.46.3-.76.3-.53-.1-.73-.3Z"/>
    <path class="cls-1" d="M133.99,14.35h1.4v5.67h5.71v-5.67h1.4v13.34h-1.4v-6.52h-5.71v6.52h-1.4v-13.34Z"/>
    <path class="cls-1" d="M148.28,22.14l-4.09-7.79h1.51l3.28,6.53h.02l3.22-6.53h1.44l-3.98,7.79v5.54h-1.4v-5.54Z"/>
    <path class="cls-1" d="M160.94,27.11c-.75-.56-1.33-1.37-1.74-2.41-.41-1.04-.61-2.27-.61-3.67s.2-2.66.6-3.71.98-1.84,1.72-2.39c.74-.55,1.63-.83,2.65-.83,1.08,0,1.98.31,2.7.95.72.63,1.22,1.48,1.49,2.56l-1.22.65c-.19-.89-.53-1.61-1.03-2.18-.49-.56-1.14-.85-1.94-.85-.7,0-1.31.23-1.84.68-.53.46-.94,1.12-1.23,1.99s-.44,1.91-.44,3.12c0,1.14.15,2.15.44,3.02s.71,1.56,1.24,2.04c.53.49,1.14.73,1.83.73.79,0,1.44-.3,1.94-.89.5-.59.85-1.32,1.05-2.19l1.24.68c-.28,1.07-.78,1.92-1.5,2.56-.73.64-1.64.96-2.73.96-1,0-1.87-.28-2.62-.85Z"/>
    <path class="cls-1" d="M170.39,26.66c-.69-.85-1.03-2.08-1.03-3.67s.34-2.82,1.03-3.67c.69-.85,1.6-1.28,2.75-1.28s2.07.43,2.75,1.28c.68.85,1.02,2.08,1.02,3.67s-.34,2.82-1.02,3.67c-.68.85-1.59,1.28-2.75,1.28s-2.06-.43-2.75-1.28ZM175.02,25.74c.35-.78.53-1.7.53-2.75s-.18-1.97-.53-2.75c-.35-.78-.98-1.17-1.88-1.17s-1.54.39-1.88,1.16c-.34.77-.51,1.7-.51,2.76s.17,1.99.51,2.76c.34.77.97,1.16,1.88,1.16s1.53-.39,1.88-1.17Z"/>
    <path class="cls-1" d="M180.52,18.29v.99c.42-.37.85-.67,1.29-.9.44-.23.92-.34,1.45-.34.7,0,1.26.23,1.7.68.44.45.66,1.2.66,2.26v6.71h-1.33v-6.68c0-.49-.12-.93-.35-1.31-.23-.38-.59-.58-1.07-.58-.67,0-1.45.43-2.34,1.28v7.29h-1.33v-9.4h1.33Z"/>
    <path class="cls-1" d="M189.34,27.52c-.56-.28-1.04-.71-1.44-1.27l.86-.86c.29.44.65.8,1.08,1.08.43.28.91.41,1.42.41s.99-.14,1.36-.42c.37-.28.55-.67.55-1.18,0-.35-.1-.64-.3-.86-.2-.23-.44-.41-.74-.54-.29-.13-.69-.28-1.2-.43-.61-.19-1.11-.38-1.48-.56-.38-.18-.7-.44-.96-.79-.26-.35-.4-.8-.4-1.37,0-.83.29-1.48.86-1.96.58-.48,1.3-.72,2.18-.72.58,0,1.11.11,1.61.34.5.23.92.55,1.25.97l-.7.92c-.65-.79-1.38-1.19-2.2-1.19-.5,0-.92.13-1.26.4-.34.26-.5.63-.5,1.1,0,.35.1.63.3.86.2.22.44.4.74.53s.69.28,1.2.43c.62.2,1.12.4,1.5.58.38.18.7.44.96.79.26.35.4.8.4,1.37,0,.85-.3,1.53-.91,2.04s-1.38.76-2.31.76c-.68,0-1.31-.14-1.87-.42Z"/>
    <path class="cls-1" d="M197.41,27.3c-.32-.43-.48-1.12-.48-2.08v-5.81h-1.37v-1.12h1.37v-2.5l1.33-.81v3.31h2.11v1.12h-2.11v6.07c0,.91.33,1.37.99,1.37.35,0,.73-.16,1.13-.47l.04,1.13c-.48.29-.98.43-1.49.43-.7,0-1.2-.21-1.52-.64Z"/>
    <path class="cls-1" d="M203.68,18.29v1.84c.48-.68.94-1.19,1.39-1.53s.96-.5,1.55-.5c.16,0,.31.02.47.05v1.33c-.24-.05-.44-.07-.59-.07-.46,0-.9.17-1.33.5s-.92.89-1.48,1.68v6.1h-1.33v-9.4h1.33Z"/>
    <path class="cls-1" d="M209.13,27.6c-.41-.23-.75-.55-1-.98-.25-.43-.38-.93-.38-1.52,0-.98.34-1.73,1.01-2.25.67-.52,1.73-.88,3.17-1.08.52-.06.86-.17,1.03-.32.17-.15.25-.43.25-.85,0-.49-.14-.86-.43-1.12-.29-.25-.68-.38-1.17-.38s-.95.14-1.38.41c-.43.28-.78.63-1.07,1.06l-.74-.92c.84-1.08,1.94-1.62,3.31-1.62.9,0,1.59.23,2.07.7.48.47.72,1.18.72,2.12v6.82h-1.31v-1.17c-.47.47-.91.82-1.32,1.06-.41.24-.88.36-1.4.36s-.95-.11-1.36-.34ZM212.05,26.43c.41-.29.79-.66,1.12-1.11v-2.7h-.04l-1.15.16c-1.02.14-1.76.39-2.22.75-.46.35-.69.86-.69,1.52,0,.55.15.99.46,1.32.31.33.73.5,1.27.5.42,0,.84-.15,1.25-.44Z"/>
    <path class="cls-1" d="M217.34,15.7c-.19-.19-.28-.41-.28-.67s.09-.49.28-.67.4-.28.66-.28.47.09.67.28c.19.19.29.41.29.67s-.1.47-.29.67c-.19.19-.41.29-.67.29s-.47-.1-.66-.29ZM217.35,18.29h1.33v9.4h-1.33v-9.4Z"/>
    <path class="cls-1" d="M222.93,18.29v.99c.42-.37.85-.67,1.29-.9.44-.23.92-.34,1.45-.34.7,0,1.26.23,1.7.68.44.45.66,1.2.66,2.26v6.71h-1.33v-6.68c0-.49-.12-.93-.35-1.31-.23-.38-.59-.58-1.07-.58-.67,0-1.45.43-2.34,1.28v7.29h-1.33v-9.4h1.33Z"/>
    <path class="cls-1" d="M231.28,26.66c-.68-.85-1.03-2.09-1.03-3.71s.34-2.78,1.03-3.64c.69-.85,1.63-1.28,2.82-1.28s1.99.42,2.55,1.27.84,1.98.84,3.39c0,.19,0,.34-.02.45h-5.85c-.01,1.27.22,2.21.69,2.83.47.61,1.11.92,1.9.92.47,0,.91-.15,1.32-.46s.75-.69,1.02-1.16l.83.77c-.35.56-.8,1.02-1.37,1.37-.56.35-1.22.52-1.96.52-1.16,0-2.09-.43-2.77-1.28ZM235.62,19.96c-.35-.6-.89-.9-1.64-.9-.49,0-.91.15-1.26.46s-.61.7-.77,1.18c-.17.48-.26.98-.27,1.49h4.45c.01-.89-.16-1.63-.5-2.23Z"/>
    <path class="cls-1" d="M241.16,27.46c-.54-.32-.99-.84-1.36-1.57-.37-.73-.55-1.67-.55-2.83s.17-2.09.52-2.84c.35-.76.79-1.31,1.33-1.66.54-.35,1.09-.52,1.66-.52.43,0,.84.11,1.23.33.39.22.77.52,1.14.89v-4.82l1.33-.77v14.02h-1.26v-1.01c-.38.42-.76.74-1.13.94-.37.21-.8.32-1.3.32-.54,0-1.08-.16-1.62-.48ZM244.25,26.3c.38-.32.68-.7.89-1.12v-4.59c-.25-.42-.55-.77-.9-1.04-.35-.27-.74-.41-1.19-.41-.84,0-1.46.39-1.86,1.16-.4.77-.6,1.7-.6,2.76,0,.8.12,1.49.35,2.04.23.56.54.98.92,1.25.38.28.78.41,1.2.41s.82-.16,1.2-.49Z"/>
    <path class="cls-1" d="M253.54,14.35h1.4v13.34h-1.4v-13.34Z"/>
    <path class="cls-1" d="M259.36,18.29v.99c.42-.37.85-.67,1.29-.9.44-.23.92-.34,1.45-.34.7,0,1.26.23,1.7.68.44.45.66,1.2.66,2.26v6.71h-1.33v-6.68c0-.49-.12-.93-.35-1.31-.23-.38-.59-.58-1.07-.58-.67,0-1.45.43-2.34,1.28v7.29h-1.33v-9.4h1.33Z"/>
    <path class="cls-1" d="M268.63,27.46c-.54-.32-.99-.84-1.36-1.57-.37-.73-.55-1.67-.55-2.83s.17-2.09.52-2.84c.35-.76.79-1.31,1.33-1.66.54-.35,1.09-.52,1.66-.52.43,0,.84.11,1.23.33.39.22.77.52,1.14.89v-4.82l1.33-.77v14.02h-1.26v-1.01c-.38.42-.76.74-1.13.94-.37.21-.8.32-1.3.32-.54,0-1.08-.16-1.62-.48ZM271.72,26.3c.38-.32.68-.7.89-1.12v-4.59c-.25-.42-.55-.77-.9-1.04-.35-.27-.74-.41-1.19-.41-.84,0-1.46.39-1.86,1.16-.4.77-.6,1.7-.6,2.76,0,.8.12,1.49.35,2.04.23.56.54.98.92,1.25.38.28.78.41,1.2.41s.82-.16,1.2-.49Z"/>
    <path class="cls-1" d="M277.25,26.66c-.68-.85-1.03-2.09-1.03-3.71s.34-2.78,1.03-3.64c.69-.85,1.63-1.28,2.82-1.28s1.99.42,2.55,1.27.84,1.98.84,3.39c0,.19,0,.34-.02.45h-5.85c-.01,1.27.22,2.21.69,2.83.47.61,1.11.92,1.9.92.47,0,.91-.15,1.32-.46s.75-.69,1.02-1.16l.83.77c-.35.56-.8,1.02-1.37,1.37-.56.35-1.22.52-1.96.52-1.16,0-2.09-.43-2.77-1.28ZM281.59,19.96c-.35-.6-.89-.9-1.64-.9-.49,0-.91.15-1.26.46s-.61.7-.77,1.18c-.17.48-.26.98-.27,1.49h4.45c.01-.89-.16-1.63-.5-2.23Z"/>
    <path class="cls-1" d="M289.08,22.7l3.11,4.99h-1.53l-2.39-3.98h-.04l-2.21,3.98h-1.39l2.88-4.91-2.83-4.48h1.51l2.09,3.53h.04l1.98-3.53h1.39l-2.61,4.41Z"/>
    <path class="cls-3" d="M321.58,27.69h-12.49v-12.49h12.49v12.49Z"/>
    <path class="cls-1" d="M331.27,14.35h1.4v12.19h5.67v1.15h-7.07v-13.34Z"/>
    <path class="cls-1" d="M340.85,27.6c-.41-.23-.75-.55-1-.98-.25-.43-.38-.93-.38-1.52,0-.98.34-1.73,1.01-2.25.67-.52,1.73-.88,3.17-1.08.52-.06.86-.17,1.03-.32.17-.15.25-.43.25-.85,0-.49-.14-.86-.43-1.12-.29-.25-.68-.38-1.17-.38s-.95.14-1.38.41c-.43.28-.78.63-1.07,1.06l-.74-.92c.84-1.08,1.94-1.62,3.31-1.62.9,0,1.59.23,2.07.7.48.47.72,1.18.72,2.12v6.82h-1.31v-1.17c-.47.47-.91.82-1.32,1.06-.41.24-.88.36-1.4.36s-.95-.11-1.36-.34ZM343.77,26.43c.41-.29.79-.66,1.12-1.11v-2.7h-.04l-1.15.16c-1.02.14-1.76.39-2.22.75-.46.35-.69.86-.69,1.52,0,.55.15.99.46,1.32.31.33.73.5,1.27.5.42,0,.84-.15,1.25-.44Z"/>
    <path class="cls-1" d="M350.42,18.29v1.84c.48-.68.94-1.19,1.39-1.53s.96-.5,1.55-.5c.16,0,.31.02.47.05v1.33c-.24-.05-.44-.07-.59-.07-.46,0-.9.17-1.33.5s-.92.89-1.48,1.68v6.1h-1.33v-9.4h1.33Z"/>
    <path class="cls-1" d="M362.45,18.96c-.32,0-.69.13-1.1.38.38.54.58,1.18.58,1.93,0,.64-.15,1.2-.45,1.69-.3.49-.71.87-1.22,1.13-.52.26-1.09.4-1.71.4s-1.13-.11-1.6-.32c-.48.38-.72.74-.72,1.08,0,.38.61.64,1.84.76l1.58.13c1.04.1,1.84.32,2.39.66s.83.86.83,1.56c0,.84-.38,1.48-1.15,1.93-.77.44-1.8.67-3.1.67s-2.31-.2-3.01-.61c-.7-.41-1.04-.97-1.04-1.67,0-.82.53-1.43,1.58-1.84-.36-.13-.63-.31-.82-.54s-.28-.49-.28-.79.08-.59.24-.85c.16-.25.46-.57.91-.95-.35-.28-.61-.62-.79-1.04s-.27-.87-.27-1.36c0-.64.15-1.2.45-1.69.3-.49.71-.87,1.23-1.14.52-.27,1.11-.41,1.76-.41.85,0,1.58.23,2.2.68.31-.28.6-.48.86-.62s.55-.21.87-.21l.38.02v1.12c-.14-.05-.29-.07-.43-.07ZM357.35,27.06c-.59.18-1.01.38-1.25.59s-.37.5-.37.86c0,.48.27.84.82,1.07.55.23,1.27.35,2.19.35.82,0,1.51-.11,2.07-.34.56-.23.85-.59.85-1.1,0-.38-.19-.66-.56-.84-.37-.17-1-.31-1.87-.4l-1.87-.2ZM360.07,22.92c.37-.42.56-.97.56-1.66s-.17-1.24-.52-1.67-.86-.64-1.53-.64-1.2.23-1.58.68c-.38.45-.57,1-.57,1.67s.19,1.18.57,1.61c.38.43.88.64,1.52.64s1.18-.21,1.55-.63Z"/>
    <path class="cls-1" d="M364.91,26.66c-.68-.85-1.03-2.09-1.03-3.71s.34-2.78,1.04-3.64c.69-.85,1.63-1.28,2.82-1.28s1.99.42,2.55,1.27c.56.85.84,1.98.84,3.39,0,.19,0,.34-.02.45h-5.85c-.01,1.27.22,2.21.69,2.83.47.61,1.11.92,1.9.92.47,0,.91-.15,1.32-.46s.75-.69,1.02-1.16l.83.77c-.35.56-.8,1.02-1.37,1.37-.56.35-1.22.52-1.96.52-1.16,0-2.09-.43-2.77-1.28ZM369.25,19.96c-.35-.6-.89-.9-1.64-.9-.49,0-.91.15-1.26.46s-.61.7-.77,1.18c-.17.48-.26.98-.27,1.49h4.45c.01-.89-.16-1.63-.5-2.23Z"/>
    <path class="cls-1" d="M374.29,27.52c-.56-.28-1.04-.71-1.44-1.27l.86-.86c.29.44.65.8,1.08,1.08.43.28.91.41,1.42.41s.99-.14,1.36-.42c.37-.28.55-.67.55-1.18,0-.35-.1-.64-.3-.86-.2-.23-.44-.41-.74-.54-.29-.13-.69-.28-1.2-.43-.61-.19-1.11-.38-1.48-.56-.38-.18-.7-.44-.96-.79-.26-.35-.4-.8-.4-1.37,0-.83.29-1.48.86-1.96.58-.48,1.3-.72,2.18-.72.58,0,1.11.11,1.61.34.5.23.91.55,1.25.97l-.7.92c-.65-.79-1.38-1.19-2.2-1.19-.5,0-.92.13-1.26.4s-.5.63-.5,1.1c0,.35.1.63.3.86s.44.4.74.53c.29.13.69.28,1.2.43.62.2,1.12.4,1.5.58.38.18.7.44.96.79.26.35.4.8.4,1.37,0,.85-.3,1.53-.91,2.04-.61.51-1.38.76-2.31.76-.68,0-1.31-.14-1.87-.42Z"/>
    <path class="cls-1" d="M382.36,27.3c-.32-.43-.48-1.12-.48-2.08v-5.81h-1.37v-1.12h1.37v-2.5l1.33-.81v3.31h2.11v1.12h-2.11v6.07c0,.91.33,1.37.99,1.37.35,0,.73-.16,1.13-.47l.04,1.13c-.48.29-.98.43-1.49.43-.7,0-1.2-.21-1.52-.64Z"/>
    <path class="cls-1" d="M392.63,18.29v.97c.37-.38.74-.68,1.12-.9.37-.22.79-.32,1.26-.32.56,0,1.11.17,1.65.52.53.35.97.9,1.32,1.65.35.75.52,1.7.52,2.85s-.18,2.11-.55,2.83c-.37.73-.82,1.25-1.35,1.57-.53.32-1.08.48-1.63.48-.88,0-1.66-.41-2.34-1.24v4.01h-1.33v-12.42h1.33ZM395.87,26.52c.37-.24.68-.64.93-1.2.25-.56.37-1.29.37-2.19,0-1.06-.21-1.97-.62-2.75s-1.03-1.17-1.84-1.17c-.42,0-.81.13-1.17.4-.36.26-.66.6-.9,1.01v4.64c.22.43.51.81.89,1.13s.77.49,1.18.49.8-.12,1.17-.36Z"/>
    <path class="cls-1" d="M401.64,27.6c-.41-.23-.75-.55-1-.98-.25-.43-.38-.93-.38-1.52,0-.98.34-1.73,1.01-2.25s1.73-.88,3.17-1.08c.52-.06.86-.17,1.03-.32.17-.15.25-.43.25-.85,0-.49-.14-.86-.43-1.12s-.68-.38-1.17-.38-.95.14-1.38.41c-.43.28-.78.63-1.07,1.06l-.74-.92c.84-1.08,1.94-1.62,3.31-1.62.9,0,1.59.23,2.07.7.48.47.72,1.18.72,2.12v6.82h-1.31v-1.17c-.47.47-.91.82-1.32,1.06-.41.24-.88.36-1.39.36s-.95-.11-1.36-.34ZM404.56,26.43c.41-.29.79-.66,1.12-1.11v-2.7h-.04l-1.15.16c-1.02.14-1.76.39-2.22.75-.46.35-.69.86-.69,1.52,0,.55.15.99.46,1.32.31.33.73.5,1.27.5.42,0,.84-.15,1.25-.44Z"/>
    <path class="cls-1" d="M410.74,27.52c-.56-.28-1.04-.71-1.44-1.27l.86-.86c.29.44.65.8,1.08,1.08.43.28.91.41,1.42.41s.99-.14,1.36-.42c.37-.28.55-.67.55-1.18,0-.35-.1-.64-.3-.86-.2-.23-.44-.41-.74-.54-.29-.13-.69-.28-1.2-.43-.61-.19-1.11-.38-1.48-.56-.38-.18-.7-.44-.96-.79-.26-.35-.4-.8-.4-1.37,0-.83.29-1.48.86-1.96.58-.48,1.3-.72,2.18-.72.58,0,1.11.11,1.61.34.5.23.91.55,1.25.97l-.7.92c-.65-.79-1.38-1.19-2.2-1.19-.5,0-.92.13-1.26.4s-.5.63-.5,1.1c0,.35.1.63.3.86s.44.4.74.53c.29.13.69.28,1.2.43.62.2,1.12.4,1.5.58.38.18.7.44.96.79.26.35.4.8.4,1.37,0,.85-.3,1.53-.91,2.04-.61.51-1.38.76-2.31.76-.68,0-1.31-.14-1.87-.42Z"/>
    <path class="cls-1" d="M418.89,27.52c-.56-.28-1.04-.71-1.44-1.27l.86-.86c.29.44.65.8,1.08,1.08.43.28.91.41,1.42.41s.99-.14,1.36-.42c.37-.28.55-.67.55-1.18,0-.35-.1-.64-.3-.86-.2-.23-.44-.41-.74-.54-.29-.13-.69-.28-1.2-.43-.61-.19-1.11-.38-1.48-.56-.38-.18-.7-.44-.96-.79-.26-.35-.4-.8-.4-1.37,0-.83.29-1.48.86-1.96.58-.48,1.3-.72,2.18-.72.58,0,1.11.11,1.61.34.5.23.91.55,1.25.97l-.7.92c-.65-.79-1.38-1.19-2.2-1.19-.5,0-.92.13-1.26.4s-.5.63-.5,1.1c0,.35.1.63.3.86s.44.4.74.53c.29.13.69.28,1.2.43.62.2,1.12.4,1.5.58.38.18.7.44.96.79.26.35.4.8.4,1.37,0,.85-.3,1.53-.91,2.04-.61.51-1.38.76-2.31.76-.68,0-1.31-.14-1.87-.42Z"/>
    <path class="cls-1" d="M426.15,15.7c-.19-.19-.28-.41-.28-.67s.09-.49.28-.67c.19-.19.41-.28.66-.28s.47.09.67.28c.19.19.29.41.29.67s-.1.47-.29.67c-.19.19-.41.29-.67.29s-.47-.1-.66-.29ZM426.16,18.29h1.33v9.4h-1.33v-9.4Z"/>
    <path class="cls-1" d="M428.99,18.29h1.44l2.34,8.08h.04l2.32-8.08h1.35l-2.9,9.4h-1.62l-2.97-9.4Z"/>
    <path class="cls-1" d="M438.37,26.66c-.68-.85-1.03-2.09-1.03-3.71s.34-2.78,1.04-3.64c.69-.85,1.63-1.28,2.82-1.28s1.99.42,2.55,1.27c.56.85.84,1.98.84,3.39,0,.19,0,.34-.02.45h-5.85c-.01,1.27.22,2.21.69,2.83.47.61,1.11.92,1.9.92.47,0,.91-.15,1.32-.46s.75-.69,1.02-1.16l.83.77c-.35.56-.8,1.02-1.37,1.37-.56.35-1.22.52-1.96.52-1.16,0-2.09-.43-2.77-1.28ZM442.7,19.96c-.35-.6-.89-.9-1.64-.9-.49,0-.91.15-1.26.46s-.61.7-.77,1.18c-.17.48-.26.98-.27,1.49h4.45c.01-.89-.16-1.63-.5-2.23Z"/>
    <path class="cls-1" d="M452.21,13.66v5.62c.42-.37.85-.67,1.29-.9.44-.23.92-.34,1.45-.34.7,0,1.26.23,1.7.68.44.45.66,1.2.66,2.26v6.71h-1.33v-6.68c0-.49-.12-.93-.35-1.31-.23-.38-.59-.58-1.07-.58-.67,0-1.45.43-2.34,1.28v7.29h-1.33v-13.25l1.33-.77Z"/>
    <path class="cls-1" d="M460.14,15.7c-.19-.19-.28-.41-.28-.67s.09-.49.28-.67c.19-.19.41-.28.66-.28s.47.09.67.28c.19.19.29.41.29.67s-.1.47-.29.67c-.19.19-.41.29-.67.29s-.47-.1-.66-.29ZM460.15,18.29h1.33v9.4h-1.33v-9.4Z"/>
    <path class="cls-1" d="M471.41,18.96c-.32,0-.69.13-1.1.38.38.54.58,1.18.58,1.93,0,.64-.15,1.2-.45,1.69-.3.49-.71.87-1.22,1.13-.52.26-1.09.4-1.71.4s-1.13-.11-1.6-.32c-.48.38-.72.74-.72,1.08,0,.38.61.64,1.84.76l1.58.13c1.04.1,1.84.32,2.39.66.55.34.83.86.83,1.56,0,.84-.38,1.48-1.15,1.93-.77.44-1.8.67-3.1.67s-2.31-.2-3.01-.61c-.7-.41-1.04-.97-1.04-1.67,0-.82.53-1.43,1.58-1.84-.36-.13-.63-.31-.82-.54-.19-.23-.28-.49-.28-.79s.08-.59.24-.85.46-.57.91-.95c-.35-.28-.61-.62-.79-1.04-.18-.41-.27-.87-.27-1.36,0-.64.15-1.2.45-1.69s.71-.87,1.23-1.14c.52-.27,1.11-.41,1.76-.41.85,0,1.58.23,2.2.68.31-.28.6-.48.86-.62s.55-.21.86-.21l.38.02v1.12c-.14-.05-.29-.07-.43-.07ZM466.32,27.06c-.59.18-1,.38-1.25.59s-.37.5-.37.86c0,.48.27.84.82,1.07.55.23,1.27.35,2.19.35.82,0,1.51-.11,2.07-.34.56-.23.85-.59.85-1.1,0-.38-.19-.66-.56-.84s-1-.31-1.87-.4l-1.87-.2ZM469.04,22.92c.37-.42.56-.97.56-1.66s-.17-1.24-.52-1.67c-.35-.43-.86-.64-1.53-.64s-1.2.23-1.58.68c-.38.45-.57,1-.57,1.67s.19,1.18.57,1.61c.38.43.88.64,1.52.64s1.18-.21,1.55-.63Z"/>
    <path class="cls-1" d="M475.16,13.66v5.62c.42-.37.85-.67,1.29-.9.44-.23.92-.34,1.45-.34.7,0,1.26.23,1.7.68.44.45.66,1.2.66,2.26v6.71h-1.33v-6.68c0-.49-.12-.93-.35-1.31-.23-.38-.59-.58-1.07-.58-.67,0-1.45.43-2.34,1.28v7.29h-1.33v-13.25l1.33-.77Z"/>
    <path class="cls-1" d="M482.27,22.18h3.53v1.13h-3.53v-1.13Z"/>
    <path class="cls-1" d="M486.71,30.87l.13-1.13c.25.1.5.14.76.14.66,0,1.15-.19,1.48-.58.32-.38.6-.94.83-1.66l-3.37-9.36h1.42l2.63,7.61h.02l2.38-7.61h1.3l-3.31,9.99c-.31.92-.7,1.61-1.17,2.06-.47.45-1.15.67-2.03.67-.37,0-.72-.05-1.04-.14Z"/>
    <path class="cls-1" d="M495.76,15.7c-.19-.19-.28-.41-.28-.67s.09-.49.28-.67c.19-.19.41-.28.66-.28s.47.09.67.28c.19.19.29.41.29.67s-.1.47-.29.67c-.19.19-.41.29-.67.29s-.47-.1-.66-.29ZM495.77,18.29h1.33v9.4h-1.33v-9.4Z"/>
    <path class="cls-1" d="M500.41,26.66c-.68-.85-1.03-2.09-1.03-3.71s.34-2.78,1.04-3.64c.69-.85,1.63-1.28,2.82-1.28s1.99.42,2.55,1.27c.56.85.84,1.98.84,3.39,0,.19,0,.34-.02.45h-5.85c-.01,1.27.22,2.21.69,2.83.47.61,1.11.92,1.9.92.47,0,.91-.15,1.32-.46s.75-.69,1.02-1.16l.83.77c-.35.56-.8,1.02-1.37,1.37-.56.35-1.22.52-1.96.52-1.16,0-2.09-.43-2.77-1.28ZM504.75,19.96c-.35-.6-.89-.9-1.64-.9-.49,0-.91.15-1.26.46s-.61.7-.77,1.18c-.17.48-.26.98-.27,1.49h4.45c.01-.89-.16-1.63-.5-2.23Z"/>
    <path class="cls-1" d="M508.92,14.44l1.33-.77v14.02h-1.33v-13.25Z"/>
    <path class="cls-1" d="M514.47,27.46c-.54-.32-.99-.84-1.36-1.57-.37-.73-.55-1.67-.55-2.83s.17-2.09.52-2.84c.35-.76.79-1.31,1.33-1.66.54-.35,1.09-.52,1.66-.52.43,0,.84.11,1.23.33.39.22.77.52,1.14.89v-4.82l1.33-.77v14.02h-1.26v-1.01c-.38.42-.76.74-1.13.94-.37.21-.8.32-1.3.32-.54,0-1.08-.16-1.62-.48ZM517.56,26.3c.38-.32.67-.7.89-1.12v-4.59c-.25-.42-.55-.77-.9-1.04-.35-.27-.74-.41-1.19-.41-.84,0-1.46.39-1.86,1.16-.4.77-.6,1.7-.6,2.76,0,.8.12,1.49.35,2.04.23.56.54.98.92,1.25.38.28.78.41,1.2.41s.82-.16,1.2-.49Z"/>
    <path class="cls-1" d="M526.85,14.35h7.2v1.15h-5.8v4.68h4.32v1.15h-4.32v5.2h6.17v1.15h-7.58v-13.34Z"/>
    <path class="cls-1" d="M538.71,15.5h-3.55v-1.15h8.5v1.15h-3.55v12.19h-1.4v-12.19Z"/>
    <path class="cls-1" d="M545.46,14.35h6.8v1.15h-5.4v4.68h4.1v1.15h-4.1v6.35h-1.4v-13.34Z"/>
  </g>
  <g>
    <path class="cls-1" d="M752.8,483.57c.95-2.39,2.45-3.8,3.84-4.95,1.55-1.28,2.81-2.3,2.81-4.09,0-1.46-.88-2.72-2.36-2.72-1.73,0-2.81,1.73-2.7,3.44l-1.21-.85c-.05-2.02,1.66-3.85,4-3.85s3.75,1.67,3.75,3.85c0,2.36-1.69,3.75-3.42,5.19-1.33,1.12-2.68,2.34-3.28,4h6.7v1.26h-8.12v-1.28Z"/>
    <path class="cls-1" d="M763.24,477.84c0-3.1.68-7.29,4.38-7.29s4.38,4.2,4.38,7.29-.68,7.29-4.38,7.29-4.38-4.2-4.38-7.29ZM770.62,477.84c0-2.23-.25-6.03-3.01-6.03s-3.01,3.8-3.01,6.03.25,6.03,3.01,6.03,3.01-3.8,3.01-6.03Z"/>
    <path class="cls-1" d="M774.29,483.57c.95-2.39,2.45-3.8,3.84-4.95,1.55-1.28,2.81-2.3,2.81-4.09,0-1.46-.88-2.72-2.36-2.72-1.73,0-2.81,1.73-2.7,3.44l-1.21-.85c-.05-2.02,1.66-3.85,4-3.85s3.75,1.67,3.75,3.85c0,2.36-1.69,3.75-3.42,5.19-1.33,1.12-2.68,2.34-3.28,4h6.7v1.26h-8.12v-1.28Z"/>
    <path class="cls-1" d="M784.53,480.23l5.04-9.4h1.98v9.4h2.12v1.26h-2.12v3.35h-1.46v-3.35h-5.56v-1.26ZM790.1,480.23v-7.87h-.04l-4.07,7.87h4.1Z"/>
  </g>
  <g>
    <path class="cls-1" d="M408.52,483.57c.95-2.39,2.45-3.8,3.84-4.95,1.55-1.28,2.81-2.3,2.81-4.09,0-1.46-.88-2.72-2.36-2.72-1.73,0-2.81,1.73-2.7,3.44l-1.21-.85c-.05-2.02,1.66-3.85,4-3.85s3.75,1.67,3.75,3.85c0,2.36-1.69,3.75-3.42,5.19-1.33,1.12-2.68,2.34-3.28,4h6.7v1.26h-8.12v-1.28Z"/>
    <path class="cls-1" d="M418.96,477.84c0-3.1.68-7.29,4.38-7.29s4.38,4.2,4.38,7.29-.68,7.29-4.38,7.29-4.38-4.2-4.38-7.29ZM426.34,477.84c0-2.23-.25-6.03-3.01-6.03s-3.01,3.8-3.01,6.03.25,6.03,3.01,6.03,3.01-3.8,3.01-6.03Z"/>
    <path class="cls-1" d="M431.65,473h-.04s-.18.25-.68.65-1.26.76-1.8.94l-.36-1.21c.65-.22,1.33-.58,1.8-.94.47-.36,1.01-.92,1.3-1.6h1.26v14.01h-1.48v-11.85Z"/>
    <path class="cls-1" d="M437.3,483.08c.61.47,1.6.79,2.45.79,1.44,0,3.55-1.21,3.75-5.94h-.04c-.72,1.12-1.87,1.84-3.24,1.84-1.49,0-3.87-1.08-3.87-4.41,0-3.64,2.47-4.81,4.12-4.81,2.23,0,4.48,1.78,4.48,6.36,0,5.49-2.41,8.23-5.24,8.23-1.1,0-2.11-.22-2.95-.76l.54-1.3ZM440.45,471.81c-1.12,0-2.63.86-2.63,3.6,0,1.49.72,3.1,2.34,3.1,1.53,0,2.7-1.3,3.29-2.59-.14-3.69-2.16-4.11-3.01-4.11Z"/>
  </g>
  <g>
    <path class="cls-1" d="M523.98,483.57c.95-2.39,2.45-3.8,3.84-4.95,1.55-1.28,2.81-2.3,2.81-4.09,0-1.46-.88-2.72-2.36-2.72-1.73,0-2.81,1.73-2.7,3.44l-1.21-.85c-.05-2.02,1.66-3.85,4-3.85s3.75,1.67,3.75,3.85c0,2.36-1.69,3.75-3.42,5.19-1.33,1.12-2.68,2.34-3.28,4h6.7v1.26h-8.12v-1.28Z"/>
    <path class="cls-1" d="M534.42,477.84c0-3.1.68-7.29,4.38-7.29s4.38,4.2,4.38,7.29-.68,7.29-4.38,7.29-4.38-4.2-4.38-7.29ZM541.8,477.84c0-2.23-.25-6.03-3.01-6.03s-3.01,3.8-3.01,6.03.25,6.03,3.01,6.03,3.01-3.8,3.01-6.03Z"/>
    <path class="cls-1" d="M545.47,483.57c.95-2.39,2.45-3.8,3.84-4.95,1.55-1.28,2.81-2.3,2.81-4.09,0-1.46-.88-2.72-2.36-2.72-1.73,0-2.81,1.73-2.7,3.44l-1.21-.85c-.05-2.02,1.66-3.85,4-3.85s3.75,1.67,3.75,3.85c0,2.36-1.69,3.75-3.42,5.19-1.33,1.12-2.68,2.34-3.28,4h6.7v1.26h-8.12v-1.28Z"/>
    <path class="cls-1" d="M557.85,473h-.04s-.18.25-.68.65-1.26.76-1.8.94l-.36-1.21c.65-.22,1.33-.58,1.8-.94.47-.36,1.01-.92,1.3-1.6h1.26v14.01h-1.48v-11.85Z"/>
  </g>
  <g>
    <path class="cls-1" d="M637.34,483.57c.95-2.39,2.45-3.8,3.84-4.95,1.55-1.28,2.81-2.3,2.81-4.09,0-1.46-.88-2.72-2.36-2.72-1.73,0-2.81,1.73-2.7,3.44l-1.21-.85c-.05-2.02,1.66-3.85,4-3.85s3.75,1.67,3.75,3.85c0,2.36-1.69,3.75-3.42,5.19-1.33,1.12-2.68,2.34-3.28,4h6.7v1.26h-8.12v-1.28Z"/>
    <path class="cls-1" d="M647.78,477.84c0-3.1.68-7.29,4.38-7.29s4.38,4.2,4.38,7.29-.68,7.29-4.38,7.29-4.38-4.2-4.38-7.29ZM655.17,477.84c0-2.23-.25-6.03-3.01-6.03s-3.01,3.8-3.01,6.03.25,6.03,3.01,6.03,3.01-3.8,3.01-6.03Z"/>
    <path class="cls-1" d="M658.84,483.57c.95-2.39,2.45-3.8,3.84-4.95,1.55-1.28,2.81-2.3,2.81-4.09,0-1.46-.88-2.72-2.36-2.72-1.73,0-2.81,1.73-2.7,3.44l-1.21-.85c-.05-2.02,1.66-3.85,4-3.85s3.75,1.67,3.75,3.85c0,2.36-1.69,3.75-3.42,5.19-1.33,1.12-2.68,2.34-3.28,4h6.7v1.26h-8.12v-1.28Z"/>
    <path class="cls-1" d="M670.32,481.28c.49,1.42,1.64,2.59,3.13,2.59,1.69,0,2.83-1.03,2.83-2.75,0-2.29-1.48-3.02-3.55-3.02-.32,0-.65.04-.92.09v-1.4c.36.04.72.07,1.17.07,2.07,0,2.99-1.1,2.99-2.52,0-1.57-.95-2.52-2.52-2.52-1.35,0-2.3,1.04-2.61,2.12l-1.1-.83c.59-1.48,2.03-2.56,3.96-2.56,2.3,0,3.67,1.66,3.67,3.6,0,1.64-.67,2.54-2.09,3.28,1.62.54,2.47,1.84,2.47,3.51,0,2.59-1.78,4.2-4.32,4.2-1.87,0-3.49-1.08-4.25-2.83l1.13-1.03Z"/>
  </g>
  <g>
    <path class="cls-1" d="M293.66,483.57c.95-2.39,2.45-3.8,3.84-4.95,1.55-1.28,2.81-2.3,2.81-4.09,0-1.46-.88-2.72-2.36-2.72-1.73,0-2.81,1.73-2.7,3.44l-1.21-.85c-.05-2.02,1.66-3.85,4-3.85s3.75,1.67,3.75,3.85c0,2.36-1.69,3.75-3.42,5.19-1.33,1.12-2.68,2.34-3.28,4h6.7v1.26h-8.12v-1.28Z"/>
    <path class="cls-1" d="M304.1,477.84c0-3.1.68-7.29,4.38-7.29s4.38,4.2,4.38,7.29-.68,7.29-4.38,7.29-4.38-4.2-4.38-7.29ZM311.48,477.84c0-2.23-.25-6.03-3.01-6.03s-3.01,3.8-3.01,6.03.25,6.03,3.01,6.03,3.01-3.8,3.01-6.03Z"/>
    <path class="cls-1" d="M316.79,473h-.04s-.18.25-.68.65-1.26.76-1.8.94l-.36-1.21c.65-.22,1.33-.58,1.8-.94.47-.36,1.01-.92,1.3-1.6h1.26v14.01h-1.48v-11.85Z"/>
    <path class="cls-1" d="M322.15,484.84c.52-3.92,2.83-8.62,5.4-12.75h-6.43v-1.26h7.81v1.04c-2.56,4.27-4.74,9.42-5.2,12.96h-1.58Z"/>
  </g>
  <g>
    <path class="cls-1" d="M177.61,483.57c.95-2.39,2.45-3.8,3.84-4.95,1.55-1.28,2.81-2.3,2.81-4.09,0-1.46-.88-2.72-2.36-2.72-1.73,0-2.81,1.73-2.7,3.44l-1.21-.85c-.05-2.02,1.66-3.85,4-3.85s3.75,1.67,3.75,3.85c0,2.36-1.69,3.75-3.42,5.19-1.33,1.12-2.68,2.34-3.28,4h6.7v1.26h-8.12v-1.28Z"/>
    <path class="cls-1" d="M188.05,477.84c0-3.1.68-7.29,4.38-7.29s4.38,4.2,4.38,7.29-.68,7.29-4.38,7.29-4.38-4.2-4.38-7.29ZM195.43,477.84c0-2.23-.25-6.03-3.01-6.03s-3.01,3.8-3.01,6.03.25,6.03,3.01,6.03,3.01-3.8,3.01-6.03Z"/>
    <path class="cls-1" d="M200.74,473h-.04s-.18.25-.68.65-1.26.76-1.8.94l-.36-1.21c.65-.22,1.33-.58,1.8-.94.47-.36,1.01-.92,1.3-1.6h1.26v14.01h-1.48v-11.85Z"/>
    <path class="cls-1" d="M206.77,481.35c.36,1.53,1.44,2.52,2.74,2.52,2.07,0,2.86-1.94,2.86-3.73,0-2.34-1.24-3.51-2.57-3.51-1.19,0-2.07.9-2.68,1.86l-1.12-.23.49-7.42h6.41v1.26h-5.2l-.34,4.45c.7-.83,1.49-1.17,2.57-1.17,2.61,0,3.93,2.3,3.93,4.66,0,2.67-1.51,5.1-4.38,5.1-1.87,0-3.26-1.06-3.83-2.79l1.13-.99Z"/>
  </g>
  <g>
    <path class="cls-1" d="M62.15,483.57c.95-2.39,2.45-3.8,3.84-4.95,1.55-1.28,2.81-2.3,2.81-4.09,0-1.46-.88-2.72-2.36-2.72-1.73,0-2.81,1.73-2.7,3.44l-1.21-.85c-.05-2.02,1.66-3.85,4-3.85s3.75,1.67,3.75,3.85c0,2.36-1.69,3.75-3.42,5.19-1.33,1.12-2.68,2.34-3.28,4h6.7v1.26h-8.12v-1.28Z"/>
    <path class="cls-1" d="M72.59,477.84c0-3.1.68-7.29,4.38-7.29s4.38,4.2,4.38,7.29-.68,7.29-4.38,7.29-4.38-4.2-4.38-7.29ZM79.98,477.84c0-2.23-.25-6.03-3.01-6.03s-3.01,3.8-3.01,6.03.25,6.03,3.01,6.03,3.01-3.8,3.01-6.03Z"/>
    <path class="cls-1" d="M85.28,473h-.04s-.18.25-.68.65-1.26.76-1.8.94l-.36-1.21c.65-.22,1.33-.58,1.8-.94.47-.36,1.01-.92,1.3-1.6h1.26v14.01h-1.48v-11.85Z"/>
    <path class="cls-1" d="M90.95,481.28c.49,1.42,1.64,2.59,3.13,2.59,1.69,0,2.83-1.03,2.83-2.75,0-2.29-1.48-3.02-3.55-3.02-.32,0-.65.04-.92.09v-1.4c.36.04.72.07,1.17.07,2.07,0,2.99-1.1,2.99-2.52,0-1.57-.95-2.52-2.52-2.52-1.35,0-2.3,1.04-2.61,2.12l-1.1-.83c.59-1.48,2.03-2.56,3.96-2.56,2.3,0,3.67,1.66,3.67,3.6,0,1.64-.67,2.54-2.09,3.28,1.62.54,2.47,1.84,2.47,3.51,0,2.59-1.78,4.2-4.32,4.2-1.87,0-3.49-1.08-4.25-2.83l1.13-1.03Z"/>
  </g>
</svg>